PathFileType	4	(X/Y/Z)	StaticT.trc																																																																									
DataRate	CameraRate	NumFrames	NumMarkers	Units	OrigDataRate	OrigDataStartFrame	OrigNumFrames																																																																					
100	100	7	25	mm	100	180	481																																																																					
Frame#	Time	AA			AI			Ant_Sh			CV7			GH			LAH			Lat_Sh			LCAJ			LPH			Post_Sh			RAH			RCAJ			RHLE			RHME			RPH			RUA			SJN			SXS			TS			TV8			centelbow			centpxt8			centijc7			centLPHRPH			ScapulaThoracicContactPt		
		X1	Y1	Z1	X2	Y2	Z2	X3	Y3	Z3	X4	Y4	Z4	X5	Y5	Z5	X6	Y6	Z6	X7	Y7	Z7	X8	Y8	Z8	X9	Y9	Z9	X10	Y10	Z10	X11	Y11	Z11	X12	Y12	Z12	X13	Y13	Z13	X14	Y14	Z14	X15	Y15	Z15	X16	Y16	Z16	X17	Y17	Z17	X18	Y18	Z18	X19	Y19	Z19	X20	Y20	Z20	X21	Y21	Z21	X22	Y22	Z22	X23	Y23	Z23	X24	Y24	Z24	X25	Y25	Z25
																																																																												
181	1.8	-753.8943481	1558.407959	763.5865479	-770.9907837	1376.608521	721.6350708	-643.0336914	1576.321289	778.3889771	-748.8196411	1597.952759	583.6346436	-695.2084961	1549.835815	776.4118652	-527.9490356	1778.396118	555.6784668	-714.5203857	1586.798462	790.8852539	-698.7092896	1595.690063	438.3121033	-727.9839478	1732.599121	517.8812866	-767.7369995	1513.018188	773.6635132	-545.2960205	1778.268799	653.0535278	-706.7940063	1589.957764	731.6800537	-723.0274048	1523.108643	1051.292114	-608.3077393	1476.460449	1057.164673	-740.9608154	1735.171631	633.8061523	-724.8618774	1460.344727	905.1882324	-584.3535767	1522.78479	591.3828735	-521.8800659	1344.253296	591.9439087	-803.3600464	1506.370728	675.7928467	-756.9341431	1310.577148	584.6271362	-665.667572	1499.784546	1054.228394	-639.4071045	1327.415222	588.2855225	-666.5866089	1560.368774	587.5087585	-734.4723816	1733.885376	575.8437195	-776.0817261	1480.462402	720.3381551
182	1.81	-753.9060669	1558.414307	763.5780029	-771.0330811	1376.645996	721.6659546	-643.0299072	1576.313477	778.4044189	-748.8273315	1597.950806	583.6560669	-695.1834717	1549.834106	776.4198608	-527.9682007	1778.424194	555.6697388	-714.5072021	1586.81311	790.8414307	-698.704834	1595.735962	438.31073	-727.9697266	1732.634888	517.8786621	-767.7375488	1512.99707	773.6589966	-545.3005981	1778.284668	653.0732422	-706.8381348	1589.977173	731.7072144	-723.0273438	1523.129883	1051.296265	-608.3060303	1476.477295	1057.148071	-740.9978638	1735.176025	633.8329468	-724.9118652	1460.356323	905.2229614	-584.3577881	1522.782104	591.3980713	-521.8754883	1344.261597	591.914856	-803.3970947	1506.354248	675.7680054	-756.8968506	1310.557739	584.6117554	-665.666687	1499.803589	1054.222168	-639.3861694	1327.409668	588.2633057	-666.5925598	1560.366455	587.5270691	-734.4837952	1733.905457	575.8558044	-776.1120809	1480.471517	720.337321
183	1.82	-753.9293213	1558.416504	763.5910034	-771.0331421	1376.645996	721.6659546	-643.0439453	1576.305298	778.3634033	-748.8700562	1597.957153	583.6220093	-695.2383423	1549.830566	776.397522	-528.0270996	1778.442627	555.6670532	-714.5349121	1586.800293	790.8510742	-698.7678223	1595.743408	438.3115234	-728.0161133	1732.652832	517.9025269	-767.8168335	1513.016357	773.6639404	-545.3313599	1778.242798	653.1173706	-706.8838501	1589.962891	731.7838135	-723.0678101	1523.171753	1051.315063	-608.3588867	1476.526611	1057.149292	-740.9990845	1735.200439	633.836792	-724.9378052	1460.391357	905.1868286	-584.4011841	1522.786011	591.3601074	-521.8887939	1344.298218	591.9547119	-803.4381104	1506.390015	675.7987061	-756.8967285	1310.557983	584.6117554	-665.7133484	1499.849182	1054.232178	-639.3927612	1327.428101	588.2832336	-666.6356201	1560.371582	587.4910583	-734.5075989	1733.926636	575.8696594	-776.1335246	1480.484172	720.351888
184	1.83	-753.9575806	1558.433838	763.6114502	-771.0704346	1376.687378	721.6862183	-643.1049805	1576.31665	778.3898926	-748.8829346	1597.948486	583.6560669	-695.2657471	1549.830811	776.425415	-528.0266724	1778.428711	555.6741943	-714.5994873	1586.83667	790.8483887	-698.7520752	1595.700562	438.2974854	-728.0390015	1732.673828	517.883667	-767.7853394	1513.007324	773.6942139	-545.3435669	1778.240845	653.0933838	-706.8937988	1589.956909	731.7391968	-723.1442261	1523.196289	1051.308228	-608.4159546	1476.579102	1057.132324	-741.0062256	1735.165039	633.8291016	-724.956604	1460.372314	905.2478638	-584.4039307	1522.789795	591.3660889	-521.835022	1344.357422	591.9331055	-803.4440918	1506.343262	675.7992554	-756.9395142	1310.551147	584.6328735	-665.7800903	1499.887695	1054.220276	-639.3872681	1327.454285	588.2829895	-666.6434326	1560.369141	587.5110779	-734.5226135	1733.919434	575.8563843	-776.157369	1480.488159	720.3656413
185	1.84	-754.0253906	1558.436157	763.6002808	-771.0335693	1376.624146	721.6609497	-643.1234741	1576.338501	778.3850098	-748.9325562	1597.901733	583.6638794	-695.2839355	1549.831787	776.4105225	-528.0083618	1778.42041	555.7061768	-714.6281738	1586.821777	790.8578491	-698.8482666	1595.696533	438.3464966	-728.0176392	1732.651978	517.894043	-767.8227539	1512.96936	773.6646118	-545.3858032	1778.247925	653.1131592	-706.9398193	1589.96936	731.7680054	-723.1690674	1523.251709	1051.276123	-608.4173584	1476.585083	1057.133423	-741.0431519	1735.169434	633.8568115	-725.0269775	1460.444946	905.2411499	-584.4678955	1522.823486	591.4028931	-521.8765869	1344.317871	591.8959351	-803.4765015	1506.331421	675.7646484	-756.9481201	1310.55603	584.6895142	-665.7932129	1499.918396	1054.204773	-639.4123535	1327.436951	588.2927246	-666.7002258	1560.36261	587.5333862	-734.5303955	1733.910706	575.8754272	-776.1784871	1480.463908	720.3419596
186	1.85	-754.0256348	1558.433594	763.6010132	-771.0818481	1376.614014	721.6923828	-643.1847534	1576.36499	778.3806152	-748.9714966	1597.90564	583.6268311	-695.2897339	1549.852783	776.4113159	-528.0943604	1778.424316	555.6738281	-714.6386719	1586.806885	790.8505249	-698.8486938	1595.69519	438.3478088	-728.057251	1732.660767	517.9137573	-767.828125	1512.943481	773.6697388	-545.3999023	1778.22998	653.1193237	-707.0037842	1589.949219	731.7539063	-723.1845703	1523.259521	1051.331177	-608.4761353	1476.629272	1057.14624	-741.0845337	1735.180542	633.8840942	-725.0269775	1460.444824	905.2411499	-584.5073242	1522.789307	591.3656616	-521.9273071	1344.31543	591.9078979	-803.4500732	1506.296387	675.7998047	-756.9071655	1310.517578	584.6576538	-665.8303528	1499.944397	1054.238708	-639.4172363	1327.416504	588.2827759	-666.7394104	1560.347473	587.4962463	-734.5708923	1733.920654	575.8989258	-776.1858521	1480.447998	720.3644002
187	1.86	-754.0727539	1558.422729	763.5771484	-771.0391846	1376.598022	721.6665649	-643.1818848	1576.352539	778.3799438	-749.0425415	1598.012695	583.6786499	-695.3001099	1549.849854	776.3983154	-528.0559692	1778.426147	555.7780151	-714.6517944	1586.824707	790.8518677	-698.90625	1595.712891	438.3438416	-728.083374	1732.665039	517.8954468	-767.8596802	1512.952515	773.6394653	-545.4404297	1778.232056	653.138855	-707.0032349	1589.951294	731.753479	-723.2206421	1523.220825	1051.30127	-608.5284424	1476.632568	1057.135498	-741.1277466	1735.171143	633.8587646	-725.0717163	1460.460938	905.2660522	-584.5134277	1522.783081	591.3887329	-521.9725952	1344.32251	591.873291	-803.5241699	1506.299194	675.7911987	-756.9450073	1310.524902	584.6386719	-665.8745422	1499.926697	1054.218384	-639.4588013	1327.423706	588.2559814	-666.7779846	1560.397888	587.5336914	-734.6055603	1733.918091	575.8771057	-776.2120361	1480.439982	720.3449707
